####
#
# OBJ File Generated by Meshlab
#
####
# Object platforms.obj
#
# Vertices: 8
# Faces: 4
#
####
mtllib ./platforms.obj.mtl

vn 0.000000 1.000000 -0.000000
v 1.000000 0.500000 0.500000
vn 0.000000 1.000000 -0.000000
v 2.000000 0.500000 0.500000
vn 0.000000 1.000000 -0.000000
v 2.000000 0.500000 -0.500000
vn 0.000000 1.000000 -0.000000
v 1.000000 0.500000 -0.500000
vn 0.000000 1.000000 -0.000000
v 3.000000 0.500000 0.500000
vn 0.000000 1.000000 -0.000000
v 4.000000 0.500000 0.500000
vn 0.000000 1.000000 -0.000000
v 4.000000 0.500000 -0.500000
vn 0.000000 1.000000 -0.000000
v 3.000000 0.500000 -0.500000
# 8 vertices, 0 vertices normals


usemtl material_0
vt 0.000000 0.000000
vt 1.000000 0.000000
vt 1.000000 1.000000
f 1/1/1 2/2/2 3/3/3
vt 0.000000 1.000000
f 1/1/1 3/3/3 4/4/4

usemtl material_1
f 5/1/5 6/2/6 7/3/7
f 5/1/5 7/3/7 8/4/8
# 4 faces, 4 coords texture

# End of File
